# xmcd
#
# Track frame offsets:
# 150
# 13723
# 32376
# 48749
# 64783
# 80591
# 94205
# 104959
# 120791
# 133175
# 148544
# 165645
# 178734
# 196791
# 214692
# 230438
# 240886
# 254069
# 270126
# 281930
# 300996
# 318850
#
# Disc length: 4418 seconds
#
# Revision: 3
# Processed by: cddbd v1.4PL0 Copyright (c) Steve Scherf et al.
# Submitted via: Axialis_AX_CDPlayer 2.6
#
DISCID=31114016
DTITLE=Frank Sinatra - My Way - The Best Of [CD 2)
DYEAR=1900
DGENRE=
TTITLE0=Let's Face The Music and Dance
TTITLE1=Come Rain Or Come Shine
TTITLE2=Night And Day
TTITLE3=The Very Thought Of You
TTITLE4=Pennies From Heaven
TTITLE5=Bewitched
TTITLE6=America The Beautiful
TTITLE7=All The Way
TTITLE8=In The Wee Small Hours Of The Morning
TTITLE9=The Way You Look Tonight
TTITLE10=Three Coins In The Fountain
TTITLE11=Softly As I Leave You
TTITLE12=All Or Nothing At All
TTITLE13=Yesterday
TTITLE14=Moonlight Serenade
TTITLE15=Somewhere My Love
TTITLE16=Mrs. Robinson
TTITLE17=Something
TTITLE18=You Are The Sunshine Of My Life
TTITLE19=Send In The Clowns
TTITLE20=It Had To Be You
TTITLE21=The Best Of Everything
EXTD=put in by freaky
EXTT0=
EXTT1=
EXTT2=
EXTT3=
EXTT4=
EXTT5=
EXTT6=
EXTT7=
EXTT8=
EXTT9=
EXTT10=
EXTT11=
EXTT12=
EXTT13=
EXTT14=
EXTT15=
EXTT16=
EXTT17=
EXTT18=
EXTT19=
EXTT20=
EXTT21=
PLAYORDER=
